<svg width="30" height="30" viewBox="0 0 30 30" fill="none" xmlns="http://www.w3.org/2000/svg">
<path fill-rule="evenodd" clip-rule="evenodd" d="M24.8003 18.1657L29.1363 22.5231C30.2841 23.6803 30.2881 25.5518 29.1468 26.974C28.2661 28.0715 27.0598 29.5744 23.6907 29.9711C23.6331 29.9778 23.4173 30 23.0596 30C21.3415 30 15.1744 29.4361 7.95033 22.1819C1.48347 15.6833 -0.756631 11.0818 0.218338 6.29937C0.914692 2.88259 2.78309 1.22582 3.15541 0.924628C3.77084 0.327865 4.57281 0 5.42057 0C6.25592 0 7.03568 0.32213 7.61636 0.907051L11.9515 5.26179C13.1758 6.49048 13.1501 8.51887 11.894 9.78321L10.2046 11.479C10.9373 12.8036 11.9401 14.5495 13.7478 16.3659C15.5576 18.1839 17.3008 19.1911 18.6123 19.9233L20.3001 18.2283C20.9192 17.6061 21.7379 17.2631 22.605 17.2631C23.4383 17.2631 24.218 17.5838 24.8003 18.1657ZM27.6975 25.8004L27.6975 25.8003C28.1416 25.2471 28.3688 24.3987 27.8184 23.8439L23.4853 19.4894C23.256 19.2602 22.9426 19.133 22.6048 19.133C22.2351 19.133 21.8841 19.2812 21.6164 19.5502L19.8233 21.3509C19.5276 21.6881 19.1281 21.8731 18.693 21.8731C18.3245 21.8731 18.0301 21.7382 17.8875 21.6578L17.8871 21.6575C16.4629 20.864 14.5099 19.776 12.4311 17.6879C10.3452 15.5919 9.26113 13.6271 8.46971 12.1925C8.19544 11.7076 8.13686 10.9631 8.63477 10.4123L8.66617 10.3792L10.5768 8.46165C11.1076 7.92735 11.1341 7.08487 10.6352 6.58422L6.29911 2.22848C6.06927 1.99686 5.75752 1.86995 5.42045 1.86995C5.05024 1.86995 4.69816 2.0188 4.42897 2.28894L4.3802 2.33806L4.3246 2.37933C4.26193 2.42745 2.64943 3.69415 2.04206 6.67435C1.20994 10.7568 3.30309 14.8666 9.26671 20.8596C15.9846 27.6056 21.5225 28.1299 23.0596 28.1299C23.3298 28.1299 23.4728 28.1138 23.4741 28.1137C26.0878 27.8059 26.8696 26.8318 27.6975 25.8004Z" fill="white"/>
<path d="M18.175 4.5807C19.7744 4.76558 21.6575 5.7387 22.9725 7.05976C24.2998 8.39303 25.271 10.3039 25.4463 11.9279C25.4981 12.4069 25.9014 12.762 26.3705 12.762C26.404 12.762 26.438 12.7601 26.4721 12.7565C26.9831 12.7008 27.3525 12.2395 27.297 11.7262C27.0752 9.67333 25.9225 7.37865 24.2889 5.73758C22.6706 4.11184 20.4095 2.95684 18.3879 2.72309C17.8774 2.66363 17.4156 3.03213 17.3568 3.545C17.298 4.05786 17.6642 4.52161 18.175 4.5807Z" fill="white"/>
<path d="M17.3055 8.49884C18.1705 8.59895 19.3676 9.24346 20.1518 10.0312C20.9428 10.8258 21.5856 12.0398 21.6803 12.918C21.7321 13.3972 22.1354 13.7523 22.6045 13.7523C22.638 13.7523 22.6719 13.7504 22.7059 13.7468C23.217 13.6911 23.5864 13.2298 23.531 12.7165C23.3691 11.217 22.3781 9.62318 21.468 8.7089C20.566 7.80272 18.9948 6.81202 17.5183 6.64111C17.0071 6.58139 16.546 6.95002 16.4871 7.46289C16.4284 7.97588 16.7948 8.43975 17.3055 8.49884Z" fill="white"/>
</svg>
