
<svg width="31" height="31" viewBox="0 0 31 31" fill="none" xmlns="http://www.w3.org/2000/svg">
<path fill-rule="evenodd" clip-rule="evenodd" d="M15.5 0C6.975 0 0 6.975 0 15.5C0 24.025 6.975 31 15.5 31C24.025 31 31 24.025 31 15.5C31 6.975 24.025 0 15.5 0ZM15.5 4.65C18.135 4.65 20.15 6.665 20.15 9.3C20.15 11.935 18.135 13.95 15.5 13.95C12.865 13.95 10.85 11.935 10.85 9.3C10.85 6.665 12.865 4.65 15.5 4.65ZM6.2 21.7C8.215 24.6451 11.625 26.66 15.5 26.66C19.375 26.66 22.785 24.645 24.8 21.7C24.8 18.6 18.6 16.895 15.5 16.895C12.4 16.895 6.2 18.6 6.2 21.7Z" fill="white"/>
</svg>
