<svg width="30" height="30" viewBox="0 0 30 30" fill="none" xmlns="http://www.w3.org/2000/svg">
<path fill-rule="evenodd" clip-rule="evenodd" d="M0 15C0 6.72857 6.72857 0 15 0C23.2714 0 30 6.72857 30 15C30 23.2714 23.2714 30 15 30C6.72857 30 0 23.2714 0 15ZM2.49796 15C2.49796 21.8939 8.10612 27.502 15 27.502C21.8939 27.502 27.502 21.8939 27.502 15C27.502 8.10612 21.8939 2.49796 15 2.49796C8.10612 2.49796 2.49796 8.10612 2.49796 15Z" fill="white"/>
<path d="M21.2206 13.7517H16.2491V8.78023C16.2491 8.08839 15.692 7.53125 15.0001 7.53125C14.3083 7.53125 13.7512 8.08839 13.7512 8.78023V13.7517H8.77974C8.0879 13.7517 7.53076 14.3088 7.53076 15.0006C7.53076 15.6925 8.0879 16.2496 8.77974 16.2496H13.7512V21.221C13.7512 21.9129 14.3083 22.47 15.0001 22.47C15.692 22.47 16.2491 21.9129 16.2491 21.221V16.2496H21.2206C21.9124 16.2496 22.4695 15.6925 22.4695 15.0006C22.4695 14.3088 21.9124 13.7517 21.2206 13.7517V13.7517Z" fill="white"/>
</svg>
