<svg width="32" height="32" viewBox="0 0 32 32" fill="none" xmlns="http://www.w3.org/2000/svg">
<path fill-rule="evenodd" clip-rule="evenodd" d="M16.0498 3.54053L27.2625 3.54053C27.9502 3.54053 28.5083 4.09869 28.5083 4.78635L28.5083 27.2116C28.5083 27.8994 27.9501 28.4575 27.2625 28.4575H16.0498C15.3609 28.4575 14.804 29.0143 14.804 29.7033C14.804 30.3922 15.3609 30.9492 16.0498 30.9492L27.2625 30.9492C29.3231 30.9492 31 29.2723 31 27.2116L31 4.78641C31 2.72578 29.3231 1.04889 27.2625 1.04889L16.0498 1.04889C15.3609 1.04889 14.804 1.60576 14.804 2.29471C14.804 2.98365 15.3609 3.54053 16.0498 3.54053Z" fill="white"/>
<path fill-rule="evenodd" clip-rule="evenodd" d="M1.37125 16.8869L8.94602 24.362C9.43439 24.8454 10.2242 24.8392 10.7076 24.3496C11.191 23.8599 11.1861 23.0713 10.6952 22.5879L5.28197 17.2458H19.7874C20.4763 17.2458 21.0332 16.6889 21.0332 15.9999C21.0332 15.311 20.4763 14.7541 19.7874 14.7541L5.28197 14.7541L10.6952 9.41189C11.186 8.9285 11.1897 8.13988 10.7076 7.65027C10.4635 7.40359 10.142 7.27902 9.82059 7.27902C9.50412 7.27902 9.18771 7.39861 8.94602 7.63785L1.37125 15.1129C1.13453 15.3471 1 15.6661 1 16C1 16.3338 1.1333 16.6514 1.37125 16.8869Z" fill="white"/>
</svg>
