<svg width="23" height="30" viewBox="0 0 23 30" fill="none" xmlns="http://www.w3.org/2000/svg">
<path fill-rule="evenodd" clip-rule="evenodd" d="M12.1391 11.25H10.2225V13.1251C10.2225 13.4705 9.9367 13.7501 9.58356 13.7501H7.02798C6.67483 13.7501 6.38907 13.4705 6.38907 13.1251V11.2501H4.4724C4.11926 11.2501 3.8335 10.9705 3.8335 10.6251V8.12504C3.8335 7.77957 4.11926 7.50002 4.4724 7.50002H6.38907V5.62502C6.38907 5.27955 6.67483 5 7.02798 5H9.58356C9.9367 5 10.2225 5.27955 10.2225 5.62502V7.49996H12.1391C12.4923 7.49996 12.778 7.77951 12.778 8.12498V10.625C12.778 10.9705 12.4923 11.25 12.1391 11.25ZM8.94465 10.6251C8.94465 10.2796 9.23041 10 9.58356 10H11.5002V8.75006H9.58356C9.23041 8.75006 8.94465 8.47051 8.94465 8.12504V6.25004H7.66689V8.12504C7.66689 8.47051 7.38113 8.75006 7.02798 8.75006H5.11131V10H7.02798C7.38113 10 7.66689 10.2796 7.66689 10.6251V12.5001H8.94465V10.6251Z" fill="white"/>
<path fill-rule="evenodd" clip-rule="evenodd" d="M22.8128 6.43313L16.4239 0.183105C16.3041 0.065918 16.1419 0 15.9722 0H2.55552C1.14677 0 0 1.12119 0 2.50002V27.5C0 28.8788 1.14677 30 2.55558 30H20.4445C21.8532 30 23 28.8788 23 27.5V6.87498C23 6.70898 22.9326 6.55031 22.8128 6.43313ZM16.6111 2.13381L20.8188 6.25002H17.8888C17.1838 6.25002 16.6111 5.6891 16.6111 5.00004V2.13381ZM20.4445 28.75C21.1495 28.75 21.7222 28.189 21.7222 27.5V7.5H17.8889C16.4801 7.5 15.3333 6.37881 15.3333 5.00004V1.25004H2.55558C1.8506 1.25004 1.27782 1.81096 1.27782 2.50002V27.5C1.27782 28.189 1.85054 28.75 2.55558 28.75H20.4445Z" fill="white"/>
<path fill-rule="evenodd" clip-rule="evenodd" d="M3.8335 18.125C3.8335 17.0911 4.69324 16.25 5.75016 16.25C6.80708 16.25 7.66683 17.0911 7.66683 18.125C7.66683 19.1589 6.80708 20 5.75016 20C4.69324 20 3.8335 19.1589 3.8335 18.125ZM5.11125 18.125C5.11125 18.4699 5.39827 18.75 5.75016 18.75C6.10205 18.75 6.38907 18.4699 6.38907 18.125C6.38907 17.7801 6.10205 17.5 5.75016 17.5C5.39827 17.5 5.11125 17.7802 5.11125 18.125Z" fill="white"/>
<path fill-rule="evenodd" clip-rule="evenodd" d="M3.8335 24.375C3.8335 23.3411 4.69324 22.5 5.75016 22.5C6.80708 22.5 7.66683 23.3411 7.66683 24.375C7.66683 25.4089 6.80708 26.25 5.75016 26.25C4.69324 26.25 3.8335 25.4089 3.8335 24.375ZM5.11125 24.375C5.11125 24.7199 5.39827 25 5.75016 25C6.10205 25 6.38907 24.7198 6.38907 24.375C6.38907 24.0301 6.10205 23.75 5.75016 23.75C5.39827 23.75 5.11125 24.0302 5.11125 24.375Z" fill="white"/>
<path d="M10.2222 18.125C10.2222 18.4705 10.5079 18.75 10.8611 18.75H18.5277C18.8809 18.75 19.1667 18.4705 19.1667 18.125C19.1667 17.7796 18.8809 17.5 18.5277 17.5H10.8611C10.5079 17.5001 10.2222 17.7796 10.2222 18.125Z" fill="white"/>
<path d="M18.5277 23.75H10.8611C10.5079 23.75 10.2222 24.0296 10.2222 24.375C10.2222 24.7205 10.5079 25 10.8611 25H18.5277C18.8809 25 19.1667 24.7205 19.1667 24.375C19.1667 24.0296 18.8809 23.75 18.5277 23.75Z" fill="white"/>
</svg>
