<svg xmlns="http://www.w3.org/2000/svg" width="195" height="48" fill="none"><path fill="#fff" fill-rule="evenodd" d="M193.155 11c-1.374-.568-2.94.106-3.498 1.508l-5.724 14.374-5.973-14.376c-.579-1.393-2.155-2.043-3.52-1.453-1.365.59-2.003 2.197-1.424 3.59l8.063 19.406-3.782 9.497c-.558 1.401.103 2.998 1.477 3.568 1.374.569 2.94-.106 3.498-1.507l12.36-31.038c.558-1.402-.103-2.999-1.477-3.568M163.942 11.032c-1.41-.467-2.925.32-3.382 1.759l-4.486 14.09-4.278-13.792a2.721 2.721 0 0 0-1.815-2.13c-1.41-.468-2.925.32-3.383 1.758l-4.53 14.234-4.418-14.24c-.447-1.443-1.955-2.242-3.369-1.786-1.414.457-2.197 1.995-1.75 3.437l6.881 22.182c.422 1.362 1.792 2.15 3.134 1.848a2.7 2.7 0 0 0 2.116-1.855l4.444-13.962 4.356 14.043c.447 1.441 1.956 2.24 3.37 1.784.158-.05.306-.117.448-.193l.014-.008.093-.054a2.712 2.712 0 0 0 1.236-1.537l7.044-22.128c.457-1.439-.315-2.983-1.725-3.45M110.355 33.097c-4.61 0-8.346-3.811-8.346-8.513 0-4.701 3.736-8.513 8.346-8.513 4.609 0 8.346 3.811 8.346 8.513s-3.737 8.513-8.346 8.513Zm13.592-9.532c-.513-7.203-6.4-12.885-13.592-12.885-7.529 0-13.632 6.225-13.632 13.904 0 7.68 6.103 13.905 13.632 13.905 3.209 0 6.156-1.134 8.485-3.026v.401c0 1.45 1.152 2.625 2.574 2.625 1.421 0 2.573-1.175 2.573-2.625v-11.85c0-.153-.016-.303-.04-.449ZM42.343 33.097c-4.609 0-8.346-3.811-8.346-8.513 0-4.701 3.737-8.513 8.346-8.513 4.61 0 8.347 3.811 8.347 8.513s-3.737 8.513-8.346 8.513Zm0-22.417c-7.528 0-13.632 6.225-13.632 13.904 0 7.68 6.104 13.905 13.633 13.905 7.528 0 13.632-6.225 13.632-13.905 0-7.679-6.104-13.904-13.632-13.904ZM75.837 33.012c-4.683 0-8.478-3.871-8.478-8.647s3.795-8.647 8.478-8.647c4.682 0 8.477 3.871 8.477 8.647s-3.795 8.647-8.477 8.647ZM89.684 2.74C89.684 1.226 88.482 0 86.999 0s-2.685 1.226-2.685 2.739v10.463a13.61 13.61 0 0 0-8.477-2.96c-7.648 0-13.847 6.323-13.847 14.123 0 7.8 6.2 14.124 13.847 14.124 7.647 0 13.847-6.323 13.847-14.124l-.002-.077.002-.04V2.739ZM5.066 1.21A2.587 2.587 0 0 0 1.433.477c-1.2.821-1.522 2.48-.717 3.705L11.07 20.205v15.614c0 1.475 1.172 2.67 2.619 2.67 1.446 0 2.618-1.195 2.618-2.67V19.706L5.067 1.21ZM23.317 9.608l-2.578 3.919a2.614 2.614 0 0 1-3.668.737c-1.213-.831-1.535-2.506-.722-3.742l2.568-3.899 4.4 2.985ZM27.236 2.834c0 .517-.144 1.039-.449 1.5l-2.58 3.922-4.402-2.986 2.592-3.94a2.61 2.61 0 0 1 3.668-.737 2.707 2.707 0 0 1 1.171 2.241" clip-rule="evenodd"/></svg>